<?xml version="1.0" encoding="utf-8"?>
<!-- Svg Vector Icons : http://www.sfont.cn -->
<!DOCTYPE svg PUBLIC "-//W3C//DTD SVG 1.1//EN" "http://www.w3.org/Graphics/SVG/1.1/DTD/svg11.dtd">
<svg fill="#666" version="1.1" xmlns="http://www.w3.org/2000/svg" xmlns:xlink="http://www.w3.org/1999/xlink" x="0px" y="0px" viewBox="0 0 1000 1000" enable-background="new 0 0 1000 1000" xml:space="preserve">
<metadata> Svg Vector Icons : http://www.sfont.cn </metadata>
<g><path d="M767.9,88.4c38.4,0,74.5,15,101.6,42.1c27.1,27.1,42.1,63.2,42.1,101.6v535.8c0,38.4-15,74.5-42.1,101.6c-27.1,27.1-63.2,42.1-101.6,42.1H232.1c-38.4,0-74.5-15-101.6-42.1c-27.1-27.1-42.1-63.2-42.1-101.6V232.1c0-38.4,15-74.5,42.1-101.6c27.1-27.1,63.2-42.1,101.6-42.1L767.9,88.4 M767.9,10H232.1C109.4,10,10,109.4,10,232.1v535.8C10,890.6,109.4,990,232.1,990h535.8C890.6,990,990,890.6,990,767.9V232.1C990,109.4,890.6,10,767.9,10L767.9,10z"/></g>
</svg>